<svg width="400" height="400" viewBox="0 0 400 400" fill="none" xmlns="http://www.w3.org/2000/svg">
  <path d="M200 50C117.157 50 50 117.157 50 200C50 282.843 117.157 350 200 350C282.843 350 350 282.843 350 200C350 117.157 282.843 50 200 50Z" fill="black" stroke="black" stroke-width="10"/>
  <path d="M200 80C134.772 80 80 134.772 80 200C80 265.228 134.772 320 200 320C265.228 320 320 265.228 320 200C320 134.772 265.228 80 200 80Z" fill="white"/>
  <path d="M200 120C156.863 120 120 156.863 120 200C120 243.137 156.863 280 200 280C243.137 280 280 243.137 280 200C280 156.863 243.137 120 200 120Z" fill="black"/>
  <path d="M280 200L350 270" stroke="white" stroke-width="30" stroke-linecap="round"/>
</svg>

